<svg width="800" height="600" xmlns="http://www.w3.org/2000/svg">
  <g>
    <title>Layer 1</title>
    <rect stroke="#000" rx="5" id="svg_1" height="198" width="401.99997" y="8" x="8" fill="#000000" />
    <path stroke="#a855f7" id="svg_5"
      d="m251.41507,113l29.35716,-35.5l78.28575,0l29.35715,35.5l-29.35715,35.5l-78.28575,0l-29.35716,-35.5z"
      stroke-width="5" fill="none" />
    <text transform="matrix(1.72157 0 0 1.38001 -282.47 -74.5433)" stroke="#ffffff" font-style="normal"
      font-weight="normal" xml:space="preserve" text-anchor="start" font-family="'Assistant'" font-size="18"
      stroke-width="0" id="svg_3" y="141.89889" x="328.55807" fill="#a855f7">3 kyu</text>
    <text style="cursor: move;" transform="matrix(1.72157 0 0 1.38001 -282.47 -74.5433)" stroke="#ffffff"
      font-style="normal" font-weight="normal" xml:space="preserve" text-anchor="start" font-family="'Assistant'"
      font-size="18" stroke-width="0" id="svg_4" y="90.80239" x="178.72661" fill="#a855f7">Margo's Codewars Stats</text>
    <text style="cursor: move;" transform="matrix(1.21312 0 0 1.42383 -135.727 -81.1336)" stroke="#ffffff"
      font-style="normal" font-weight="normal" xml:space="preserve" text-anchor="start" font-family="'Assistant'"
      font-size="14" stroke-width="0" id="svg_6" y="179.19068" x="267.82432" fill="#ffffff">javascript, typescript,
      sql</text>
    <text transform="matrix(1.21312 0 0 1.38001 -133.727 -74.5433)" stroke="#ffffff" font-style="normal"
      font-weight="normal" xml:space="preserve" text-anchor="start" font-family="'Assistant'" font-size="14"
      stroke-width="0" id="svg_7" y="118.71065" x="132.72013" fill="#ffffff">Honor Percentile:</text>
    <text transform="matrix(1.21312 0 0 1.38001 -133.727 -74.5433)" stroke="#ffffff" font-style="normal"
      font-weight="normal" xml:space="preserve" text-anchor="start" font-family="'Assistant'" font-size="14"
      stroke-width="0" id="svg_8" y="134.07315" x="132.54128" fill="#ffffff">Honor:</text>
    <text transform="matrix(1.21312 0 0 1.38001 -133.727 -74.5433)" stroke="#ffffff" font-style="normal"
      font-weight="normal" xml:space="preserve" text-anchor="start" font-family="'Assistant'" font-size="14"
      stroke-width="0" id="svg_9" y="164.10147" x="133.17568" fill="#ffffff">Leaderboard Position:</text>
    <text transform="matrix(1.21312 0 0 1.38001 -133.727 -74.5433)" stroke="#ffffff" font-style="normal"
      font-weight="normal" xml:space="preserve" text-anchor="start" font-family="'Assistant'" font-size="14"
      stroke-width="0" id="svg_10" y="179.10147" x="133.17568" fill="#ffffff">Skills:</text>
    <text transform="matrix(1.21312 0 0 1.38001 -133.727 -74.5433)" stroke="#ffffff" font-style="normal"
      font-weight="normal" xml:space="preserve" text-anchor="start" font-family="'Assistant'" font-size="14"
      stroke-width="0" id="svg_12" y="119.07315" x="266.17568" fill="#ffffff">8931</text>
    <text style="cursor: move;" transform="matrix(1.21312 0 0 1.38001 -133.727 -74.5433)" stroke="#ffffff"
      font-style="normal" font-weight="normal" xml:space="preserve" text-anchor="start" font-family="'Assistant'"
      font-size="14" stroke-width="0" id="svg_13" y="134.07315" x="266.17568" fill="#ffffff">41 018</text>
    <text style="cursor: move;" transform="matrix(1.21312 0 0 1.33619 -133.727 -67.9613)" stroke="#ffffff"
      font-style="normal" font-weight="normal" xml:space="preserve" text-anchor="start" font-family="'Assistant'"
      font-size="14" stroke-width="0" id="svg_2" y="164.00641" x="266.43234" fill="#ffffff">8,9310000</text>
    <text transform="matrix(1.21312 0 0 1.38001 -133.727 -74.5433)" stroke="#ffffff" font-style="normal"
      font-weight="normal" xml:space="preserve" text-anchor="start" font-family="'Assistant'" font-size="14"
      stroke-width="0" id="svg_11" y="149.07315" x="132.72005" fill="#ffffff">Solved Katas:</text>
    <text transform="matrix(1.21312 0 0 1.38001 -133.727 -74.5433)" stroke="#ffffff" font-style="normal"
      font-weight="normal" xml:space="preserve" text-anchor="start" font-family="'Assistant'" font-size="14"
      stroke-width="0" id="svg_14" y="148.34852" x="266.17568" fill="#ffffff">269</text>
  </g>

</svg>